RG Banner: http://www.piczhub.com/images/903Slide1.jpg

Cover: http://beeimg.com/images/k76287953561.jpg

Screencaps: http://beeimg.com/images/g35780795952.jpg

General
Complete name : Tum Hi Ho - Aashiqui 2 Full Song With Lyrics 2013 720p HD x264 AAC - SceneDL.MP4
Format : MPEG-4
Format profile : Base Media
Codec ID : isom
File size : 43.8 MiB
Duration : 4mn 21s
Overall bit rate : 1 404 Kbps
Movie name : Aashiqui 2
Album : Aashiqui 2
Track name/Position : 1
Genre : BollyWood
Recorded date : 2013
Writing application : SceneDL
Cover : Yes
Comment : Encoded By SceneDL
mood : Soothing
subt : English
tvsn : 0
tves : 0
rati : (Binary)
stik : 6

Video
ID : 1
Format : AVC
Format/Info : Advanced Video Codec
Format profile : High@L3.1
Format settings, CABAC : Yes
Format settings, ReFrames : 1 frame
Format settings, GOP : M=1, N=60
Codec ID : avc1
Codec ID/Info : Advanced Video Coding
Duration : 4mn 21s
Bit rate : 1 266 Kbps
Width : 1 280 pixels
Height : 720 pixels
Display aspect ratio : 16:9
Frame rate mode : Constant
Frame rate : 25.000 fps
Color space : YUV
Chroma subsampling : 4:2:0
Bit depth : 8 bits
Scan type : Progressive
Bits/(Pixel*Frame) : 0.055
Stream size : 39.5 MiB (90%)

Audio
ID : 2
Format : AAC
Format/Info : Advanced Audio Codec
Format profile : LC
Codec ID : 40
Duration : 4mn 21s
Bit rate mode : Constant
Bit rate : 128 Kbps
Channel(s) : 2 channels
Channel positions : Front: L R
Sampling rate : 44.1 KHz
Compression mode : Lossy
Stream size : 3.99 MiB (9%)

By:

SceneDL